<svg xmlns="http://www.w3.org/2000/svg" xmlns:xlink="http://www.w3.org/1999/xlink" version="1.1" id="Layer_1" x="0px" y="0px" width="100%" viewBox="0 0 518 518" enable-background="new 0 0 518 518" xml:space="preserve">
<path fill="#FCB044" opacity="1.000000" stroke="none" d=" M321.946899,360.941528   C310.587677,379.999237 299.322418,398.690277 288.293854,417.519958   C286.285583,420.948822 284.089569,422.336700 280.028809,422.252808   C266.701904,421.977631 253.364899,422.065552 240.033920,422.211090   C236.882812,422.245483 234.953278,421.433594 233.197800,418.562317   C200.694901,365.400177 167.674637,312.549835 135.628983,259.114685   C121.160927,234.989609 108.549873,209.749222 95.146652,184.987595   C74.605400,147.038849 54.104740,109.068130 33.601017,71.099098   C32.684284,69.401474 31.907425,67.628326 30.644281,65.021111   C33.300243,65.021111 35.060863,65.021111 36.821484,65.021111   C63.153294,65.021103 89.486534,65.161964 115.815651,64.895798   C120.760796,64.845810 123.551445,66.307137 126.129433,70.563980   C157.112640,121.724365 188.298096,172.762283 219.425232,223.835510   C232.778030,245.744675 246.113953,267.664093 259.475739,289.567749   C260.143860,290.662964 260.985962,291.652008 262.229370,293.348694   C266.443207,286.344879 270.382965,279.862427 274.259827,273.342560   C309.506866,214.066422 344.743256,154.783951 379.981934,95.502853   C385.344513,86.481514 390.602386,77.394943 396.158020,68.494148   C397.128113,66.939903 399.336578,65.182793 400.983765,65.172195   C429.146667,64.990990 457.311279,65.069321 485.475494,65.103905   C485.792480,65.104294 486.109283,65.280998 487.282684,65.630554   C434.155182,165.183334 381.597168,264.827576 321.946899,360.941528  z"/>
<path fill="#FCB044" opacity="1.000000" stroke="none" d=" M451.372986,286.369080   C464.182892,263.476105 476.814728,240.904022 489.446594,218.331955   C489.892456,218.438675 490.338287,218.545395 490.784149,218.652130   C490.784149,220.558655 490.779144,222.465195 490.784851,224.371704   C490.927277,272.006531 491.021393,319.641541 491.232330,367.276062   C491.362823,396.750336 491.561371,426.225464 492.007660,455.695984   C492.082367,460.625977 490.532288,461.820068 485.803223,461.790192   C455.158142,461.596344 424.510742,461.607758 393.865448,461.783600   C389.480927,461.808746 388.160309,460.580872 388.203674,456.158905   C388.373322,438.839600 388.040131,421.515472 388.197418,404.195862   C388.224487,401.212891 389.177338,397.938416 390.631866,395.313507   C410.724365,359.052917 430.979584,322.882477 451.372986,286.369080  z"/>
<path fill="#FCB145" opacity="1.000000" stroke="none" d=" M30.197239,373.000000   C30.197405,322.910858 30.197405,273.321686 30.197405,223.732544   C30.589605,223.605988 30.981804,223.479416 31.374004,223.352844   C34.131428,228.133728 36.940624,232.885605 39.638367,237.699921   C70.587181,292.930450 101.535263,348.161377 132.387451,403.445862   C133.459229,405.366394 133.974411,407.842346 133.993881,410.066040   C134.129623,425.564362 133.951355,441.065887 134.146118,456.562958   C134.195129,460.462616 133.041245,461.776184 129.080322,461.760376   C97.748444,461.635345 66.415504,461.620697 35.083900,461.775635   C30.936184,461.796112 30.112329,460.242828 30.129301,456.497314   C30.254669,428.832031 30.197100,401.165863 30.197239,373.000000  z"/>
</svg>