<svg xmlns="http://www.w3.org/2000/svg" xmlns:xlink="http://www.w3.org/1999/xlink" version="1.1" id="Layer_1" x="0px" y="0px" width="100%" viewBox="0 0 1800 304" enable-background="new 0 0 1800 304" xml:space="preserve">
<path fill="#FCB044" opacity="1.000000" stroke="none" d=" M896.822998,153.136429   C933.065308,173.692307 937.752563,219.445328 918.776245,246.621185   C908.246704,261.700409 892.903625,270.135773 875.391724,275.061157   C859.553101,279.515869 843.427795,281.268127 827.039490,281.260803   C780.874390,281.240204 734.709045,281.192993 688.544434,281.350708   C684.000977,281.366241 682.537903,280.203094 682.640259,275.528412   C682.943054,261.702209 682.896118,247.862534 682.659241,234.033737   C682.587830,229.866318 683.862244,228.687378 688.007690,228.701111   C730.005798,228.840347 772.005066,228.887070 814.002686,228.689056   C821.113525,228.655533 828.381958,228.047180 835.290344,226.456573   C848.134033,223.499390 856.394409,214.789139 855.120422,199.074356   C854.230042,188.090836 845.195984,178.999298 832.079712,177.168823   C826.499390,176.390045 820.823547,175.965683 815.189758,175.952545   C773.024780,175.854187 730.858948,175.813797 688.694702,176.012650   C683.724670,176.036102 682.537659,174.471725 682.647156,169.777603   C682.942566,157.118256 682.745361,144.447495 682.749451,131.781250   C682.751648,124.885666 682.757019,124.875252 689.475891,124.874168   C728.474609,124.867897 767.474854,125.047813 806.470520,124.700691   C813.655029,124.636726 821.081116,123.254250 827.933533,121.046135   C838.058960,117.783333 842.971558,109.810669 842.732178,99.732521   C842.474304,88.875397 837.246155,81.149887 826.700928,78.203072   C819.902649,76.303299 812.668579,75.150009 805.619080,75.097343   C766.622498,74.806030 727.622437,74.884621 688.624451,75.050568   C684.143616,75.069641 682.533630,74.066185 682.637756,69.296303   C682.947021,55.136860 682.855957,40.964989 682.676758,26.801071   C682.630005,23.104124 683.727295,21.937466 687.497192,21.949537   C732.828491,22.094719 778.167480,21.615519 823.488831,22.312128   C845.544067,22.651125 867.055481,26.595520 886.828369,37.841553   C907.291077,49.479927 919.543945,73.332214 916.482727,96.706039   C913.772522,117.400215 904.166077,133.324417 886.063416,143.955048   C885.264160,144.424469 884.608398,145.138260 883.501404,146.057358   C888.117188,148.502670 892.313354,150.725677 896.822998,153.136429  z"/>
<path fill="#FCB044" opacity="1.000000" stroke="none" d=" M1653.284180,229.705200   C1663.593506,229.582397 1673.368896,229.105377 1682.596191,225.025620   C1689.741943,221.866196 1694.372314,216.774994 1694.631714,208.770050   C1694.881592,201.062103 1690.807129,195.320099 1683.812378,192.981720   C1669.496704,188.195953 1655.026123,183.733200 1640.377441,180.117386   C1619.705688,175.014862 1598.567383,171.287750 1580.122681,159.924545   C1564.022217,150.005524 1551.609863,136.871536 1548.395996,117.236702   C1542.909058,83.715546 1554.668823,53.464558 1585.344116,34.867966   C1602.385986,24.536526 1620.914673,19.749996 1640.601807,17.847036   C1672.816284,14.733182 1704.026733,18.631054 1734.355591,29.683758   C1740.744995,32.012268 1746.804077,35.237976 1753.056885,37.954998   C1755.298950,38.929245 1756.061523,40.135597 1755.038208,42.579258   C1748.353516,58.542480 1741.731689,74.532310 1735.167236,90.545464   C1733.744873,94.015289 1731.739624,92.993446 1729.166504,92.017639   C1716.132202,87.075081 1703.291016,81.331932 1689.880127,77.747887   C1672.889648,73.207275 1655.374878,72.319763 1638.058838,77.010986   C1628.119873,79.703667 1620.483643,87.945625 1619.909424,96.129684   C1619.408325,103.272026 1622.550293,109.296425 1629.786011,111.817741   C1641.838867,116.017639 1654.067261,119.873154 1666.458862,122.904427   C1686.332275,127.765923 1706.692383,131.242691 1725.151245,140.353058   C1745.015747,150.157150 1761.255615,163.814575 1765.523682,187.336670   C1771.129517,218.231537 1759.456055,247.831848 1733.061646,265.600494   C1712.220703,279.630493 1688.900146,285.121582 1664.202759,286.200500   C1632.603882,287.580841 1601.678833,284.010193 1571.943726,272.912170   C1563.114868,269.616943 1554.833984,264.841431 1546.344482,260.657898   C1544.162354,259.582581 1542.467529,258.284637 1543.872192,255.197281   C1551.248291,238.986786 1558.467896,222.705139 1565.765869,206.458954   C1566.018188,205.897232 1566.521362,205.448257 1567.158936,204.620422   C1572.366943,207.425507 1577.370117,210.336044 1582.555298,212.874908   C1602.992310,222.881805 1624.599731,228.339157 1647.354248,229.214874   C1649.180908,229.285172 1651.000610,229.529694 1653.284180,229.705200  z"/>
<path fill="#FCB044" opacity="1.000000" stroke="none" d=" M1420.554321,225.748657   C1428.367920,222.344910 1433.977051,217.792450 1434.133545,208.679688   C1434.253784,201.685165 1431.246948,196.280487 1425.138794,193.851562   C1414.666992,189.687500 1403.939087,185.945160 1393.031128,183.147141   C1371.312988,177.576187 1348.877930,174.395050 1328.438721,164.625244   C1311.008423,156.293747 1296.045898,144.702744 1290.252075,125.319435   C1281.408691,95.733948 1288.229980,63.551041 1314.512085,42.327644   C1333.681519,26.847971 1356.036499,20.073214 1380.360107,17.824772   C1412.600342,14.844544 1443.792358,18.688297 1474.132324,29.704226   C1480.369507,31.968824 1486.273682,35.137527 1492.396118,37.736725   C1495.266113,38.955128 1495.467041,40.657864 1494.363159,43.290844   C1487.799561,58.945927 1481.282593,74.621208 1474.877197,90.341568   C1473.518433,93.676201 1471.703735,93.396812 1469.053711,92.048927   C1453.680786,84.229927 1437.634399,78.189835 1420.508911,75.779709   C1406.484985,73.806099 1392.329468,72.810242 1378.409302,76.810379   C1370.205811,79.167763 1363.471802,83.590729 1360.474121,92.004501   C1357.505127,100.337700 1360.797485,108.731651 1369.089722,111.703430   C1381.100708,116.007919 1393.339600,119.868240 1405.736694,122.859650   C1425.947388,127.736465 1446.636230,131.280685 1465.358887,140.596664   C1485.932251,150.833496 1501.909180,165.527328 1505.737549,189.931549   C1510.665161,221.343231 1496.417358,251.403641 1468.863892,268.136871   C1449.402344,279.955811 1428.120483,284.979919 1405.710938,286.133606   C1375.682129,287.679565 1346.108521,284.839111 1317.596069,274.964844   C1306.978149,271.287720 1296.978394,265.822540 1286.706421,261.151245   C1283.221558,259.566467 1282.376587,257.436584 1284.136108,253.629074   C1291.118652,238.519348 1297.821411,223.279129 1304.501465,208.031891   C1305.820068,205.022308 1307.292725,204.291718 1310.143433,206.156555   C1327.878174,217.757706 1347.667603,224.196152 1368.331177,227.385757   C1385.555542,230.044495 1403.077759,231.923599 1420.554321,225.748657  z"/>
<path fill="#FCB044" opacity="1.000000" stroke="none" d=" M961.236450,272.238647   C974.835754,241.431992 988.264343,210.966843 1001.713562,180.510788   C1023.971130,130.107803 1046.320801,79.745110 1068.390747,29.260105   C1070.711914,23.950390 1073.375977,21.889256 1079.386475,22.024477   C1099.373901,22.474134 1119.378784,22.289099 1139.374634,22.105801   C1142.942139,22.073099 1144.643677,23.225494 1146.071045,26.461678   C1169.181152,78.854996 1192.428223,131.187897 1215.628418,183.541565   C1229.320312,214.438950 1242.987061,245.347458 1256.651123,276.257141   C1257.233521,277.574615 1257.675171,278.954285 1258.420654,280.939240   C1256.226562,281.070404 1254.641113,281.246490 1253.055420,281.247711   C1231.391357,281.264313 1209.726562,281.153992 1188.064209,281.345886   C1183.962646,281.382233 1181.933838,280.151093 1180.376221,276.241913   C1157.335205,218.414795 1134.125366,160.654968 1110.948120,102.882172   C1110.044067,100.628815 1109.066040,98.405167 1107.576416,94.872917   C1106.283203,97.290939 1105.520264,98.444504 1105.015015,99.701645   C1081.426025,158.386108 1057.815063,217.061874 1034.387329,275.810730   C1032.780396,279.840302 1030.870239,281.401245 1026.453735,281.354706   C1005.291992,281.131592 984.126648,281.261475 962.962524,281.251190   C961.487366,281.250488 960.012268,281.130157 957.526001,281.021057   C958.859497,277.851105 959.967224,275.217651 961.236450,272.238647  z"/>
<path fill="#FCB044" opacity="1.000000" stroke="none" d=" M527.382935,99.375984   C542.071960,74.758759 556.504089,50.413971 571.167664,26.209435   C572.338013,24.277578 575.090942,22.114996 577.136719,22.086397   C598.289978,21.790678 619.449036,21.906284 640.606506,21.936356   C641.539673,21.937683 642.472473,22.217466 644.312378,22.513422   C641.218079,27.838793 638.470337,32.688217 635.610657,37.470779   C606.901062,85.485329 578.204895,133.508026 549.401611,181.466415   C546.478943,186.332748 545.052979,191.214081 545.105530,196.980331   C545.345764,223.300064 545.130310,249.623749 545.296570,275.944611   C545.322327,280.019562 544.271423,281.387024 540.033447,281.346497   C519.044434,281.145844 498.052460,281.261017 477.061554,281.243378   C475.605682,281.242157 474.149902,281.066132 472.077850,280.931305   C472.077850,278.859497 472.077850,277.083344 472.077850,275.307190   C472.077789,248.152283 472.215363,220.995926 471.929413,193.844025   C471.886505,189.769348 470.702271,185.215073 468.626648,181.727341   C438.570770,131.223129 408.269104,80.865181 378.041901,30.462870   C376.605713,28.068148 375.314697,25.586369 373.482971,22.294960   C375.946442,22.127489 377.642761,21.913551 379.339325,21.911781   C401.163177,21.889023 422.988098,22.007380 444.810028,21.800945   C449.068726,21.760658 451.372559,23.288177 453.489624,26.867018   C471.880585,57.956543 490.453125,88.938644 508.985321,119.944511   C509.747498,121.219681 510.645386,122.413719 512.155640,124.642624   C517.384827,115.959053 522.285095,107.821709 527.382935,99.375984  z"/>
<path fill="#FCB044" opacity="1.000000" stroke="none" d=" M99.185623,32.812592   C127.295692,78.833771 155.212662,124.545532 183.580841,170.996140   C185.325500,168.591080 186.692825,166.984848 187.757217,165.198151   C215.280167,118.998566 242.787308,72.789520 270.232025,26.543436   C272.000214,23.563932 273.962769,22.046970 277.710236,22.098326   C293.705017,22.317516 309.704529,22.181862 325.702301,22.205458   C327.122711,22.207554 328.542786,22.424639 330.984985,22.626230   C328.772308,26.985716 327.009918,30.644852 325.087097,34.217663   C305.831726,69.996399 286.997864,106.012024 267.131348,141.448563   C251.746796,168.890488 235.065109,195.605331 218.951935,222.638550   C213.155502,232.363312 207.207642,242.001144 201.602493,251.834610   C199.879913,254.856659 197.936981,256.012299 194.473618,255.893753   C186.983444,255.637344 179.468857,255.589752 171.983261,255.906387   C167.955582,256.076721 165.643127,254.658676 163.562927,251.249069   C143.876175,218.980896 123.360291,187.197906 104.420067,154.500763   C85.486473,121.815109 68.073837,88.248093 50.014874,55.056332   C44.305500,44.562695 38.661831,34.033310 32.554783,22.717402   C35.066437,22.493498 36.785271,22.210751 38.504681,22.207205   C54.169102,22.174908 69.841187,22.468235 85.493973,22.041149   C90.876663,21.894283 94.395058,23.210407 96.473999,28.193924   C97.108833,29.715721 98.141853,31.071415 99.185623,32.812592  z"/>
<path fill="#FCB145" opacity="1.000000" stroke="none" d=" M299.000000,281.257507   C289.334045,281.255981 280.166565,281.156921 271.002991,281.303192   C267.615692,281.357239 266.210419,280.217285 266.240631,276.713562   C266.335541,265.715668 266.131805,254.714981 266.251984,243.717667   C266.272614,241.831573 266.997223,239.779846 267.931427,238.102509   C289.078094,200.134644 310.298981,162.208115 331.512756,124.277649   C331.743378,123.865318 332.064606,123.503693 332.945374,122.287071   C333.232513,125.273354 333.620087,127.455376 333.626099,129.638443   C333.760529,178.634308 333.801514,227.630524 334.048218,276.625732   C334.068604,280.679810 332.887268,281.820282 328.978210,281.687073   C319.158661,281.352478 309.326874,281.376831 299.000000,281.257507  z"/>
<path fill="#FCB144" opacity="1.000000" stroke="none" d=" M32.048012,248.000000   C32.048054,207.378754 32.048054,167.257523 32.048054,125.552322   C33.840691,127.925209 34.914642,129.049744 35.650219,130.363693   C56.387352,167.406418 77.137604,204.442062 97.702621,241.580246   C99.227448,244.333923 99.946892,247.826233 100.063332,251.010895   C100.379700,259.663361 100.060944,268.337158 100.225937,276.998077   C100.288780,280.296844 99.039711,281.322998 95.850555,281.307861   C76.023590,281.213715 56.195484,281.188354 36.368992,281.322418   C32.654915,281.347534 31.946064,279.735046 31.997675,276.490936   C32.146080,267.162689 32.048748,257.830597 32.048012,248.000000  z"/>
</svg>